<svg width="22" height="23" viewBox="0 0 22 23" fill="none" xmlns="http://www.w3.org/2000/svg">
    <path
        d="M17 17.962C16.8674 17.962 16.7402 17.9093 16.6465 17.8156C16.5527 17.7218 16.5 17.5946 16.5 17.462V15.453L12.207 13.155C12.1274 13.1124 12.0607 13.0489 12.0143 12.9715C11.9678 12.894 11.9431 12.8054 11.943 12.715V11.622C11.9432 11.5271 11.9702 11.4342 12.021 11.354L13.337 9.287V6.596C13.1117 6.15757 12.7839 5.78004 12.3813 5.49554C11.9788 5.21105 11.5135 5.02801 11.025 4.962C11.0167 4.96105 11.0083 4.96105 11 4.962C10.9343 4.96233 10.8693 4.94973 10.8085 4.9249C10.7477 4.90008 10.6924 4.86352 10.6457 4.81733C10.5515 4.72403 10.4982 4.59711 10.4975 4.4645C10.4968 4.3319 10.5489 4.20446 10.6422 4.11022C10.7355 4.01598 10.8624 3.96267 10.995 3.962H11.027C13.106 3.962 14.237 6.146 14.284 6.24C14.3191 6.31015 14.3373 6.38756 14.337 6.466V9.433C14.3368 9.52791 14.3098 9.62082 14.259 9.701L12.943 11.768V12.415L17.236 14.713C17.3157 14.7557 17.3823 14.8191 17.4288 14.8966C17.4752 14.974 17.4999 15.0627 17.5 15.153V17.462C17.5 17.5946 17.4473 17.7218 17.3536 17.8156C17.2598 17.9093 17.1326 17.962 17 17.962ZM5 17.96C4.8674 17.96 4.74022 17.9073 4.64645 17.8136C4.55268 17.7198 4.5 17.5926 4.5 17.46V15.153C4.50015 15.0627 4.52477 14.974 4.57126 14.8966C4.61774 14.8191 4.68435 14.7557 4.764 14.713L9.057 12.415V11.768L7.741 9.7C7.69024 9.61982 7.6632 9.52691 7.663 9.432V6.466C7.66273 6.38756 7.68089 6.31015 7.716 6.24C7.764 6.146 8.901 3.984 11.006 3.962C11.0717 3.96279 11.1365 3.9765 11.1969 4.00235C11.2573 4.02821 11.3119 4.0657 11.3578 4.11268C11.4037 4.15967 11.4399 4.21523 11.4643 4.2762C11.4886 4.33717 11.5008 4.40234 11.5 4.468C11.4959 4.59961 11.441 4.72452 11.3469 4.8166C11.2528 4.90868 11.1267 4.96078 10.995 4.962H10.975C10.4861 5.02619 10.0201 5.20839 9.61728 5.4929C9.21448 5.7774 8.88696 6.15565 8.663 6.595V9.287L9.979 11.354C10.0298 11.4342 10.0568 11.5271 10.057 11.622V12.715C10.0569 12.8054 10.0322 12.894 9.98575 12.9715C9.93927 13.0489 9.87266 13.1124 9.793 13.155L5.5 15.453V17.46C5.5 17.5926 5.44733 17.7198 5.35356 17.8136C5.25979 17.9073 5.13261 17.96 5 17.96ZM11 22.5C8.82441 22.5 6.69767 21.8549 4.88873 20.6462C3.07979 19.4375 1.66989 17.7195 0.83733 15.7095C0.00476617 13.6995 -0.213071 11.4878 0.211367 9.35401C0.635804 7.22022 1.68345 5.26021 3.22183 3.72183C4.76021 2.18345 6.72022 1.1358 8.85401 0.711367C10.9878 0.286929 13.1995 0.504766 15.2095 1.33733C17.2195 2.16989 18.9375 3.57979 20.1462 5.38873C21.3549 7.19767 22 9.32441 22 11.5C21.9968 14.4164 20.8369 17.2125 18.7747 19.2747C16.7125 21.3369 13.9164 22.4968 11 22.5ZM11 1.50001C9.02219 1.50001 7.08879 2.08649 5.4443 3.18531C3.79981 4.28412 2.51809 5.84591 1.76121 7.67317C1.00433 9.50043 0.8063 11.5111 1.19215 13.4509C1.578 15.3907 2.53041 17.1725 3.92894 18.5711C5.32746 19.9696 7.10929 20.922 9.0491 21.3079C10.9889 21.6937 12.9996 21.4957 14.8268 20.7388C16.6541 19.9819 18.2159 18.7002 19.3147 17.0557C20.4135 15.4112 21 13.4778 21 11.5C20.9971 8.84873 19.9426 6.30689 18.0679 4.43215C16.1931 2.55742 13.6513 1.50292 11 1.50001Z"
        fill="white" />
</svg>