<svg width="22" height="21" viewBox="0 0 22 21" fill="none" xmlns="http://www.w3.org/2000/svg">
    <path
        d="M21.8372 10.9601C21.9293 11.0522 21.9754 11.1597 21.9754 11.2825C21.9754 11.4054 21.9293 11.5205 21.8372 11.628C21.7451 11.7355 21.6299 11.7893 21.4917 11.7893C21.3535 11.7893 21.223 11.7278 21.1001 11.605L11.104 1.19425L1.15388 11.605C1.06175 11.7278 0.946588 11.7893 0.808392 11.7893C0.670196 11.7893 0.555033 11.7355 0.462903 11.628C0.370772 11.5205 0.324707 11.4054 0.324707 11.2825C0.324707 11.1597 0.370772 11.0522 0.462903 10.9601L10.7355 0.134748C10.8276 0.042618 10.9504 -0.00344729 11.104 -0.00344729C11.2575 -0.00344729 11.3804 0.042618 11.4725 0.134748L15.0195 3.86603V0.457205C15.0195 0.334365 15.0733 0.226879 15.1808 0.134748C15.2882 0.042618 15.4034 -0.00344729 15.5262 -0.00344729H18.4744C18.5973 -0.00344729 18.7124 0.042618 18.8199 0.134748C18.9274 0.226879 18.9811 0.334365 18.9811 0.457205V7.82765C18.9811 7.85836 18.9658 7.88907 18.9351 7.91978L21.8372 10.9601ZM16.033 0.963923V4.87947L17.9677 6.95241V0.963923H16.033ZM18.1289 10.4534C18.1289 10.4534 18.1558 10.4303 18.2095 10.3843C18.2633 10.3382 18.3516 10.3152 18.4744 10.3152C18.5973 10.3152 18.7124 10.3612 18.8199 10.4534C18.9274 10.5455 18.9811 10.653 18.9811 10.7758V20.1271C18.9811 20.2499 18.9274 20.3651 18.8199 20.4726C18.7124 20.58 18.5973 20.6338 18.4744 20.6338H3.73354C3.6107 20.6338 3.49553 20.58 3.38805 20.4726C3.28056 20.3651 3.22682 20.2499 3.22682 20.1271V10.7758C3.22682 10.6837 3.24985 10.6069 3.29592 10.5455C3.34198 10.4841 3.4034 10.4303 3.48018 10.3843C3.55695 10.3382 3.64141 10.3152 3.73354 10.3152C3.85638 10.3152 3.97154 10.3612 4.07903 10.4534C4.18651 10.5455 4.24025 10.653 4.24025 10.7758V19.6204H8.1558V13.2633C8.1558 13.1098 8.20187 12.987 8.294 12.8948C8.38613 12.8027 8.50897 12.7566 8.66252 12.7566H13.5454C13.699 12.7566 13.8218 12.8027 13.914 12.8948C14.0061 12.987 14.0522 13.1098 14.0522 13.2633V19.6204H17.9677V10.7758C17.9677 10.653 18.0214 10.5455 18.1289 10.4534ZM9.12317 13.724V19.6204H13.0848V13.724H9.12317Z"
        fill="white" />
</svg>