<svg width="21" height="21" viewBox="0 0 21 21" fill="none" xmlns="http://www.w3.org/2000/svg">
<path d="M20.6241 20.1458L15.6241 15.1458L15.6121 15.1388C17.0876 13.4804 17.8587 11.3123 17.7617 9.09463C17.6646 6.87699 16.7072 4.78445 15.0925 3.26125C13.4778 1.73805 11.333 0.904105 9.11347 0.936454C6.89394 0.968804 4.77439 1.8649 3.20478 3.43451C1.63516 5.00413 0.739067 7.12367 0.706718 9.34321C0.674368 11.5627 1.50831 13.7075 3.03151 15.3222C4.55472 16.9369 6.64725 17.8944 8.8649 17.9914C11.0825 18.0884 13.2507 17.3173 14.9091 15.8418L14.9161 15.8538L19.9161 20.8538C20.0104 20.9449 20.1367 20.9953 20.2678 20.9942C20.3989 20.993 20.5243 20.9404 20.617 20.8477C20.7097 20.755 20.7623 20.6296 20.7634 20.4985C20.7646 20.3674 20.7142 20.2411 20.6231 20.1468L20.6241 20.1458ZM9.2701 16.9998C7.78674 16.9998 6.33669 16.56 5.10332 15.7359C3.86995 14.9117 2.90866 13.7404 2.341 12.37C1.77334 10.9995 1.62482 9.49151 1.91421 8.03666C2.2036 6.5818 2.9179 5.24543 3.9668 4.19653C5.01569 3.14764 6.35206 2.43333 7.80692 2.14394C9.26178 1.85456 10.7698 2.00308 12.1402 2.57074C13.5107 3.1384 14.682 4.09969 15.5061 5.33306C16.3302 6.56643 16.7701 8.01648 16.7701 9.49984C16.768 11.4883 15.9771 13.3947 14.5711 14.8008C13.165 16.2069 11.2586 16.9977 9.2701 16.9998Z" fill="#757575"/>
</svg>
