<svg width="24" height="21" viewBox="0 0 24 21" fill="none" xmlns="http://www.w3.org/2000/svg">
<path d="M6.55786 10.1153C6.64999 10.1153 6.72676 10.1383 6.78818 10.1844C6.8496 10.2304 6.90335 10.2919 6.94941 10.3686C6.99548 10.4454 7.01851 10.5299 7.01851 10.622V18.5913C7.01851 18.7448 6.97244 18.8677 6.88031 18.9598C6.78818 19.0519 6.67302 19.098 6.53482 19.098C6.39663 19.098 6.28146 19.0519 6.18933 18.9598C6.0972 18.8677 6.05114 18.7448 6.05114 18.5913V10.622C6.05114 10.4991 6.0972 10.384 6.18933 10.2765C6.28146 10.169 6.40431 10.1153 6.55786 10.1153ZM13.744 18.1767C14.0204 18.2074 14.1586 18.361 14.1586 18.6373C14.1586 18.6681 14.1433 18.6988 14.1126 18.7295L13.8362 20.3878C13.7747 20.6335 13.6058 20.7563 13.3294 20.7563C13.2987 20.7563 13.268 20.7563 13.2373 20.7563C12.9916 20.7256 12.8688 20.5721 12.8688 20.2957C12.8688 20.265 12.8688 20.2343 12.8688 20.2036L13.1913 18.5452C13.222 18.2995 13.3755 18.1767 13.6519 18.1767C13.6826 18.1767 13.7133 18.1767 13.744 18.1767ZM23.6941 20.1575C23.6941 20.1882 23.6941 20.2343 23.6941 20.2957C23.6941 20.4185 23.6481 20.526 23.5559 20.6182C23.4638 20.7103 23.3563 20.7563 23.2335 20.7563C22.9571 20.7563 22.7882 20.6335 22.7268 20.3878L20.8381 12.5567L18.4427 10.1153C18.2277 9.86959 18.1202 9.57784 18.1202 9.24003V7.76594C18.1202 7.42813 18.2354 7.14406 18.4657 6.91374C18.6961 6.68341 18.9801 6.55289 19.3179 6.52218H19.6865C19.625 4.28034 19.1951 2.71412 18.3966 1.82353C18.0281 1.36287 17.5521 1.13255 16.9686 1.13255C16.9686 1.13255 16.9532 1.13255 16.9225 1.13255C16.8918 1.13255 16.8611 1.13255 16.8304 1.13255C16.7997 1.13255 16.769 1.13255 16.7383 1.13255C16.7383 1.13255 16.7229 1.13255 16.6922 1.13255C16.1087 1.13255 15.6327 1.36287 15.2642 1.82353C14.4964 2.71412 14.0818 4.28034 14.0204 6.52218H14.3429C14.6807 6.55289 14.9724 6.68341 15.2181 6.91374C15.4638 7.14406 15.5866 7.42813 15.5866 7.76594V9.24003C15.5866 9.57784 15.4638 9.86959 15.2181 10.1153L12.8688 12.5567L10.9341 20.3878C10.8726 20.6335 10.7037 20.7563 10.4273 20.7563C10.3966 20.7563 10.3659 20.7563 10.3352 20.7563C10.0895 20.6949 9.96669 20.5414 9.96669 20.2957C9.96669 20.265 9.96669 20.2189 9.96669 20.1575L11.9014 12.1882C11.9321 12.1268 11.9782 12.0654 12.0396 12.0039L12.4081 11.5894C12.3467 11.5894 12.2853 11.574 12.2239 11.5433L7.70949 9.1479C7.55594 9.05577 7.47916 8.90222 7.47916 8.68725V7.62775C7.47916 7.53562 7.49452 7.44349 7.52523 7.35136L8.86112 5.32449V2.69877C8.64615 2.29953 8.31601 1.94637 7.87072 1.63926C7.42542 1.33216 6.9878 1.1479 6.55786 1.08648H6.51179C6.08185 1.1479 5.64423 1.33216 5.19893 1.63926C4.75363 1.94637 4.43885 2.29953 4.25459 2.69877V5.32449L5.54442 7.35136C5.60584 7.44349 5.63655 7.53562 5.63655 7.62775V8.68725C5.63655 8.90222 5.54442 9.05577 5.36016 9.1479L1.12216 11.4051V20.2496C1.12216 20.3725 1.07609 20.4876 0.98396 20.5951C0.891829 20.7026 0.776666 20.7563 0.63847 20.7563C0.500275 20.7563 0.385111 20.7026 0.292981 20.5951C0.20085 20.4876 0.154785 20.3725 0.154785 20.2496V11.0826C0.154785 10.8984 0.246916 10.7602 0.431177 10.6681L4.62312 8.41086V7.76594L3.33329 5.73907C3.27187 5.64694 3.24116 5.55481 3.24116 5.46268V2.56057C3.24116 2.49915 3.27187 2.42237 3.33329 2.33024C3.42542 2.14598 3.55594 1.93101 3.72484 1.68533C3.89375 1.43965 4.24692 1.11719 4.78434 0.71796C5.32177 0.318727 5.89759 0.119111 6.51179 0.119111H6.55786C7.17206 0.119111 7.75555 0.318727 8.30834 0.71796C8.86112 1.11719 9.22196 1.43965 9.39087 1.68533C9.55978 1.93101 9.69029 2.14598 9.78242 2.33024C9.81313 2.42237 9.82849 2.49915 9.82849 2.56057V5.46268C9.82849 5.55481 9.79778 5.64694 9.73636 5.73907L8.44653 7.76594V8.41086L12.6845 10.6681C12.8381 10.7602 12.9149 10.8984 12.9149 11.0826L14.5271 9.42429C14.5886 9.39358 14.6193 9.33216 14.6193 9.24003V7.76594C14.6193 7.61239 14.5271 7.53562 14.3429 7.53562H13.5137C13.3909 7.53562 13.2834 7.48955 13.1913 7.39742C13.0991 7.30529 13.0531 7.18245 13.0531 7.0289C13.0223 4.26498 13.5137 2.29953 14.5271 1.13255C14.7728 0.886866 15.103 0.664217 15.5175 0.464601C15.9321 0.264985 16.3237 0.165177 16.6922 0.165177C16.7229 0.165177 16.7383 0.165177 16.7383 0.165177C16.769 0.134466 16.7997 0.119111 16.8304 0.119111C16.8611 0.119111 16.8918 0.126789 16.9225 0.142144C16.9532 0.157499 16.984 0.165177 17.0147 0.165177C17.3832 0.165177 17.7747 0.264985 18.1893 0.464601C18.6039 0.664217 18.9187 0.886866 19.1337 1.13255C20.1778 2.29953 20.6845 4.26498 20.6538 7.0289C20.6538 7.18245 20.6078 7.30529 20.5156 7.39742C20.4235 7.48955 20.3007 7.53562 20.1471 7.53562H19.3179C19.1644 7.53562 19.0876 7.61239 19.0876 7.76594V9.24003C19.0876 9.33216 19.1183 9.39358 19.1797 9.42429L21.6212 12.0039C21.6826 12.0654 21.7287 12.1268 21.7594 12.1882L23.6941 20.1575ZM19.9628 18.1767C19.9936 18.1767 20.0243 18.1767 20.055 18.1767C20.3314 18.1767 20.4849 18.2995 20.5156 18.5452L20.8381 20.2036C20.8381 20.2343 20.8381 20.265 20.8381 20.2957C20.8381 20.5721 20.7152 20.7256 20.4696 20.7563C20.4389 20.7563 20.4081 20.7563 20.3774 20.7563C20.101 20.7563 19.9321 20.6335 19.8707 20.3878L19.5943 18.7295C19.5636 18.6988 19.5483 18.6681 19.5483 18.6373C19.5483 18.361 19.6865 18.2074 19.9628 18.1767ZM19.0876 12.05C19.2719 12.1421 19.364 12.2957 19.364 12.5107C19.364 12.5721 19.3486 12.6335 19.3179 12.6949C19.1951 13.002 19.0032 13.2938 18.7421 13.5702C18.4811 13.8466 18.1817 14.0692 17.8438 14.2381C17.506 14.407 17.1682 14.5068 16.8304 14.5375C16.3083 14.5068 15.8016 14.3072 15.3103 13.9387C14.8189 13.5702 14.4964 13.1556 14.3429 12.6949C14.3122 12.6335 14.2968 12.5721 14.2968 12.5107C14.2968 12.3571 14.3429 12.2343 14.435 12.1421C14.5271 12.05 14.6346 12.0039 14.7575 12.0039C14.9724 12.0039 15.126 12.0961 15.2181 12.2803C15.341 12.5874 15.5559 12.8638 15.863 13.1095C16.1701 13.3552 16.4926 13.4934 16.8304 13.5241C17.0454 13.5241 17.2604 13.4627 17.4753 13.3398C17.6903 13.217 17.8822 13.0634 18.0511 12.8792C18.22 12.6949 18.3352 12.4953 18.3966 12.2803C18.4888 12.0961 18.6423 12.0039 18.8573 12.0039C18.9187 12.0039 18.9955 12.0193 19.0876 12.05Z" fill="white"/>
</svg>
